<svg width="103" height="103" viewBox="0 0 103 103" fill="none" xmlns="http://www.w3.org/2000/svg">
<path d="M96.83 38.3248C96.83 14.2393 41.566 -21.0291 7.55737 30.583" stroke="black" stroke-width="7"/>
<path d="M96.9925 12.5572L102.657 12.7417L102.026 37.5479L101.081 43.9995L95.878 40.5141L96.9925 12.5572Z" fill="black"/>
<path d="M72.1406 24.3408L76.142 19.4835L102.026 37.548L97.0787 41.3747L72.1406 24.3408Z" fill="black"/>
<path d="M6.1698 64.2016C6.1698 88.2871 61.4338 123.555 95.4424 71.9434" stroke="#002D96" stroke-width="7"/>
<path d="M6.00722 89.9692L0.342748 89.7847L0.973901 64.9784L1.91859 58.5269L7.12171 62.0122L6.00722 89.9692Z" fill="#002D96"/>
<path d="M30.8594 78.1855L26.858 83.0428L0.974079 64.9784L5.92128 61.1516L30.8594 78.1855Z" fill="#002D96"/>
</svg>
