<svg width="108" height="45" viewBox="0 0 108 45" fill="none" xmlns="http://www.w3.org/2000/svg">
<path d="M43.7283 22.591L43.7573 25.5909L43.757 25.5909L43.7283 22.591ZM107.101 19.8583C108.284 21.0185 108.302 22.9179 107.142 24.1008L88.2348 43.3759C87.0746 44.5587 85.1752 44.5771 83.9924 43.4168C82.8096 42.2566 82.7913 40.3572 83.9515 39.1744L100.758 22.0409L83.6241 5.23484C82.4413 4.07463 82.4229 2.17522 83.5832 0.9924C84.7434 -0.190419 86.6428 -0.208741 87.8256 0.951477L107.101 19.8583ZM0.971284 20.0002L43.6996 19.5912L43.757 25.5909L1.02872 25.9999L0.971284 20.0002ZM43.6994 19.5912L104.971 19.0001L105.029 24.9999L43.7573 25.5909L43.6994 19.5912Z" fill="black"/>
</svg>
