<svg width="2075" height="1052" viewBox="0 0 2075 1052" fill="none" xmlns="http://www.w3.org/2000/svg">
<path d="M874.938 0.507527C874.007 1.43862 802.31 2.68008 715.405 2.99045L557.423 3.61117L559.597 64.4428C562.08 133.965 564.563 197.589 566.115 224.59C566.735 234.833 567.355 245.695 567.355 248.489C567.666 255.627 573.252 255.938 706.093 263.387C947.875 276.732 1069.23 277.043 1281.53 264.938C1324.98 262.455 1376.19 259.352 1394.81 258.421C1437.96 255.938 1445.72 255.318 1447.27 253.764C1448.51 252.213 1455.65 81.8231 1456.58 35.8891L1456.89 5.78374L1432.06 4.23191C1390.47 2.36971 876.49 -1.35466 874.938 0.507527Z" fill="white"/>
<path d="M339.564 7.96156C272.213 9.51339 133.165 15.7207 103.679 18.2036C59.6058 22.5488 41.6041 28.7561 23.9127 46.447C2.18651 68.1725 -1.22761 82.7597 0.324276 151.661C0.945014 183.318 2.49689 208.458 4.35914 210.32C6.22138 211.872 20.1883 214.044 35.3965 215.286C50.9153 216.217 77.9178 218.389 95.9197 219.941C133.475 223.355 142.165 223.975 246.452 232.355C289.283 235.458 338.012 239.184 355.082 240.115C372.153 241.046 402.88 243.218 423.364 244.77C443.85 246.632 472.405 248.495 486.991 249.735C501.58 250.667 518.65 251.909 525.167 252.529L536.652 253.461V239.184C536.652 231.115 534.479 181.145 531.996 128.383C529.513 75.3108 527.341 26.2731 527.341 18.8244V5.47864L449.125 6.40973C405.983 7.03047 356.633 7.65119 339.564 7.96156Z" fill="white"/>
<path d="M1483.58 113.2C1481.4 172.79 1479.23 227.725 1478.61 235.173C1477.99 242.933 1477.99 249.759 1478.61 251.002C1479.23 251.933 1492.58 251.933 1508.72 250.691C1524.55 249.45 1552.17 247.588 1570.17 246.656C1588.17 245.416 1609.9 243.862 1618.28 243.242C1626.97 242.622 1644.97 241.38 1658.63 240.45C1695.56 237.967 1879.31 223.379 1950.38 217.482L2012.46 212.205L2014.31 193.585C2018.05 156.03 2015.25 88.9911 2009.35 72.852C2002.22 52.9886 1984.83 35.9186 1963.73 28.1594C1933.93 16.9862 1829.96 10.7789 1607.11 7.05453L1487.61 4.88196L1483.58 113.2Z" fill="white"/>
<path d="M7.45242 254.729C15.8325 309.043 29.1787 346.286 49.353 372.978C86.5979 422.015 153.639 454.915 280.271 485.33C364.384 505.504 557.747 543.369 559.608 539.955C560.23 539.024 558.367 508.609 555.264 472.915C552.159 436.912 547.193 379.806 544.401 345.666C541.607 311.526 539.124 283.592 538.813 283.283C538.504 282.972 493.5 279.869 438.873 276.144C384.248 272.42 332.724 268.695 324.035 268.075C315.654 267.454 297.963 265.903 285.237 264.971C272.513 264.04 254.201 262.798 244.889 261.866C235.578 260.935 218.817 259.695 207.643 258.763C114.532 251.935 24.2126 244.486 15.8325 242.935L5.27979 241.383L7.45242 254.729Z" fill="white"/>
<path d="M1941.1 247.878C1906.96 250.981 1866.61 254.396 1851.09 255.638C1835.88 256.569 1817.57 258.121 1810.74 258.741C1803.91 259.361 1786.53 260.604 1771.95 261.844C1757.36 262.776 1738.73 264.327 1730.04 264.949C1710.8 266.81 1697.77 267.741 1576.41 276.121C1522.71 279.847 1478.02 283.261 1477.71 283.881C1476.47 284.812 1455.36 518.516 1455.36 532.173V541.795L1510.61 531.862C1541.03 526.276 1600.62 514.482 1643.14 505.481C1821.92 468.238 1892.37 442.787 1941.41 398.716C1977.41 366.127 1992.63 336.333 2004.42 274.881C2009.7 246.947 2009.7 241.05 2005.03 241.981C2004.11 242.292 1975.24 245.084 1941.1 247.878Z" fill="white"/>
<path d="M571.726 313.664C574.209 352.77 589.107 526.265 590.97 538.37L592.521 547.679L635.352 554.819C703.636 565.991 815.991 582.13 878.065 589.579C952.555 598.579 1056.53 599.201 1124.81 591.442C1227.86 579.336 1417.5 550.473 1421.84 546.128C1422.77 545.196 1424.64 536.507 1425.57 527.196C1427.43 508.885 1427.43 508.264 1436.74 395.29C1440.15 354.322 1443.88 312.733 1444.81 302.491L1446.67 284.49L1413.15 286.662C1394.53 287.904 1373.11 289.145 1365.35 289.767C1357.59 290.387 1333.38 291.628 1311.04 292.87C1289 294.111 1265.41 295.353 1258.9 295.973C1174.47 303.733 863.167 303.733 755.467 295.973C747.087 295.353 723.809 294.111 704.256 292.87C684.702 291.939 660.183 290.387 649.94 289.767C639.698 289.145 617.351 287.593 600.591 286.662L569.864 284.49L571.726 313.664Z" fill="white"/>
<path d="M24.2794 766.139C3.86214e-05 779.485 0 780.416 0 904.872C0 1029.33 3.86214e-05 1030.26 24.2794 1043.61L36.7431 1050.75H214.989H392.93V965.394V880.043L264.52 880.663L135.766 881.594V904.872V928.151L237.363 929.08L338.635 929.702V965.394V1001.09H196.465H54.3142V904.872C54.3142 851.8 55.2671 808.659 56.8679 808.659C58.1448 808.659 133.861 808.348 225.223 807.728L391.329 807.108L392.301 782.899L393.254 759H214.989H36.7431L24.2794 766.139Z" fill="white"/>
<path d="M482.405 887.199C482.405 1031.83 482.081 1030.28 506.989 1043.62C519.777 1050.76 519.777 1050.76 691.963 1050.76L864.148 1051.07V1026.86V1002.65L700.595 1001.72L536.7 1001.1V965.411V929.719L695.793 929.099L854.562 928.168V904.89V881.613L695.469 880.682L536.395 880.06L537.348 844.059L538.301 808.365L701.224 807.745L864.148 807.125L865.101 782.916L866.073 759.018H674.067H482.405V887.199Z" fill="white"/>
<path d="M946.249 889.974C947.201 1015.67 947.526 1021.57 953.586 1029.64C957.112 1034.29 965.097 1040.81 971.481 1044.23C982.992 1050.75 987.127 1050.75 1156.13 1050.75H1328.96V1025.91V1001.09H1164.44H999.915V965.394V929.702L1159.01 929.08L1317.78 928.151L1318.73 903.942L1319.7 880.043H1159.64H999.591L1000.56 844.351L1001.52 808.348L1164.44 807.728L1327.36 807.108L1328.32 782.899L1329.27 759H1137.28H945.296L946.249 889.974Z" fill="white"/>
<path d="M1411.98 888.114C1411.98 1014.12 1412.3 1017.85 1418.69 1028.09C1422.52 1033.67 1430.83 1041.12 1437.86 1044.54C1449.35 1050.43 1457.01 1050.75 1600.46 1050.75H1750.59V1025.91V1001.09H1608.44H1466.27V880.043V759H1439.14H1411.98V888.114Z" fill="white"/>
<path d="M1741.98 848.404L1833.67 937.479V993.654C1833.67 1024.38 1834.29 1050.45 1834.94 1051.07C1835.57 1051.69 1848.04 1052 1862.1 1051.38L1887.96 1050.14V995.516V940.582L1981.25 849.956L2074.86 759.018H2039.72H2004.57L1933.66 827.919L1862.4 897.131L1791.17 827.919L1720.25 759.018H1685.11H1649.97L1741.98 848.404Z" fill="white"/>
</svg>
