<svg width="223" height="33" viewBox="0 0 223 33" fill="none" xmlns="http://www.w3.org/2000/svg">
<path d="M47.3515 0.0508489C47.3012 0.101137 43.429 0.168188 38.7354 0.184951L30.2031 0.218476L30.3205 3.50398C30.4546 7.25884 30.5887 10.6952 30.6725 12.1535C30.706 12.7067 30.7395 13.2934 30.7395 13.4443C30.7563 13.8298 31.058 13.8466 38.2325 14.2489C51.2907 14.9697 57.845 14.9865 69.3107 14.3327C71.6575 14.1986 74.4233 14.031 75.4291 13.9807C77.7591 13.8466 78.1782 13.8131 78.262 13.7292C78.3291 13.6454 78.7146 4.44269 78.7649 1.9618L78.7817 0.335816L77.4406 0.252002C75.1944 0.151425 47.4353 -0.0497277 47.3515 0.0508489Z" fill="#2F3D47"/>
<path d="M18.4369 0.453438C14.7994 0.537252 7.28964 0.872508 5.69718 1.00661C3.31686 1.24129 2.34462 1.57655 1.38914 2.53203C0.215746 3.70542 0.0313554 4.49327 0.11517 8.21461C0.148695 9.92441 0.232509 11.2822 0.333086 11.3828C0.433662 11.4666 1.18799 11.5839 2.00936 11.651C2.8475 11.7013 4.30586 11.8186 5.27811 11.9024C7.3064 12.0868 7.77576 12.1203 13.4081 12.5729C15.7213 12.7405 18.3531 12.9417 19.275 12.992C20.197 13.0423 21.8565 13.1596 22.9628 13.2434C24.0692 13.344 25.6114 13.4446 26.3992 13.5116C27.1871 13.5619 28.109 13.629 28.461 13.6625L29.0813 13.7128V12.9417C29.0813 12.5059 28.9639 9.80707 28.8298 6.9574C28.6957 4.09096 28.5784 1.44244 28.5784 1.04014V0.319336L24.3541 0.369624C22.0241 0.40315 19.3588 0.436675 18.4369 0.453438Z" fill="#2F3D47"/>
<path d="M80.223 6.13732C80.1057 9.35578 79.9884 12.3228 79.9548 12.7251C79.9213 13.1442 79.9213 13.5129 79.9548 13.58C79.9884 13.6303 80.7092 13.6303 81.5808 13.5632C82.4357 13.4962 83.9276 13.3956 84.8999 13.3453C85.8721 13.2783 87.0455 13.1944 87.4981 13.1609C87.9674 13.1274 88.9397 13.0603 89.6772 13.0101C91.672 12.876 101.596 12.0881 105.434 11.7696L108.787 11.4846L108.887 10.4789C109.089 8.45059 108.938 4.82983 108.619 3.95816C108.234 2.88534 107.295 1.96339 106.155 1.54432C104.546 0.940858 98.9303 0.605602 86.8946 0.404449L80.441 0.287109L80.223 6.13732Z" fill="#2F3D47"/>
<path d="M0.500152 13.7813C0.952747 16.7148 1.67355 18.7263 2.76313 20.1679C4.77466 22.8164 8.39542 24.5933 15.2346 26.236C19.7774 27.3256 30.2206 29.3707 30.3211 29.1863C30.3547 29.136 30.2541 27.4933 30.0865 25.5655C29.9188 23.621 29.6506 20.5367 29.4998 18.6928C29.3489 16.8489 29.2148 15.3402 29.198 15.3235C29.1813 15.3067 26.7507 15.1391 23.8004 14.9379C20.8502 14.7368 18.0675 14.5356 17.5982 14.5021C17.1456 14.4686 16.1901 14.3848 15.5028 14.3345C14.8156 14.2842 13.8266 14.2171 13.3237 14.1668C12.8208 14.1165 11.9156 14.0495 11.3121 13.9992C6.28331 13.6304 1.40534 13.2281 0.952747 13.1443L0.382812 13.0605L0.500152 13.7813Z" fill="#2F3D47"/>
<path d="M104.933 13.4113C103.089 13.5789 100.91 13.7633 100.072 13.8304C99.2504 13.8807 98.2614 13.9645 97.8926 13.998C97.5238 14.0315 96.5851 14.0986 95.7973 14.1656C95.0094 14.2159 94.0036 14.2997 93.5343 14.3333C92.495 14.4338 91.791 14.4841 85.2367 14.9367C82.3367 15.1379 79.9229 15.3223 79.9061 15.3558C79.8391 15.4061 78.6992 28.0284 78.6992 28.766V29.2857L81.683 28.7492C83.3257 28.4475 86.5442 27.8105 88.8407 27.3244C98.4961 25.3129 102.301 23.9383 104.95 21.558C106.894 19.7979 107.716 18.1887 108.353 14.8697C108.638 13.361 108.638 13.0425 108.386 13.0928C108.336 13.1096 106.777 13.2604 104.933 13.4113Z" fill="#2F3D47"/>
<path d="M30.9756 16.9644C31.1097 19.0765 31.9143 28.4469 32.0149 29.1007L32.0987 29.6035L34.4119 29.9891C38.0998 30.5925 44.1679 31.4642 47.5204 31.8665C51.5435 32.3526 57.159 32.3862 60.8469 31.9671C66.4121 31.3133 76.6542 29.7544 76.8888 29.5197C76.9391 29.4694 77.0397 29.0001 77.09 28.4972C77.1906 27.5082 77.1906 27.4747 77.6935 21.373C77.8778 19.1603 78.079 16.9141 78.1293 16.3609L78.2299 15.3887L76.4195 15.506C75.4137 15.5731 74.2571 15.6401 73.838 15.6737C73.4189 15.7072 72.1114 15.7742 70.9045 15.8413C69.7144 15.9083 68.4404 15.9754 68.0884 16.0089C63.5289 16.428 46.7158 16.428 40.8991 16.0089C40.4465 15.9754 39.1893 15.9083 38.1333 15.8413C37.0772 15.791 35.753 15.7072 35.1998 15.6737C34.6466 15.6401 33.4397 15.5563 32.5345 15.506L30.875 15.3887L30.9756 16.9644Z" fill="#2F3D47"/>
<path d="M115.274 8.3856C114 9.1064 114 9.1567 114 15.8785C114 22.6004 114 22.6507 115.274 23.3715L115.928 23.7571H125.281H134.618V19.1473V14.5375L127.88 14.571L121.124 14.6213V15.8785V17.1358L126.455 17.186L131.769 17.2196V19.1473V21.075H124.309H116.85V15.8785C116.85 13.0121 116.9 10.6821 116.984 10.6821C117.051 10.6821 121.024 10.6653 125.818 10.6318L134.534 10.5983L134.585 9.2908L134.635 8H125.281H115.928L115.274 8.3856Z" fill="#2F3D47"/>
<path d="M139.313 14.924C139.313 22.7354 139.296 22.6516 140.603 23.3724C141.274 23.758 141.274 23.758 150.309 23.758L159.344 23.7747V22.4672V21.1597L150.762 21.1094L142.162 21.0759V19.1482V17.2205L150.51 17.187L158.841 17.1367V15.8795V14.6223L150.493 14.572L142.146 14.5384L142.196 12.594L142.246 10.6662L150.795 10.6327L159.344 10.5992L159.394 9.29168L159.445 8.00098H149.37H139.313V14.924Z" fill="#2F3D47"/>
<path d="M163.652 15.0739C163.702 21.8629 163.719 22.1814 164.037 22.6172C164.222 22.8686 164.641 23.2206 164.976 23.405C165.58 23.7571 165.797 23.7571 174.665 23.7571H183.734V22.416V21.075H175.101H166.468V19.1473V17.2196L174.816 17.186L183.147 17.1358L183.197 15.8283L183.248 14.5375H174.849H166.451L166.502 12.6098L166.552 10.6653L175.101 10.6318L183.65 10.5983L183.7 9.2908L183.75 8H173.676H163.602L163.652 15.0739Z" fill="#2F3D47"/>
<path d="M188.09 14.9734C188.09 21.779 188.107 21.9802 188.442 22.5334C188.643 22.8351 189.079 23.2374 189.448 23.4218C190.051 23.7403 190.453 23.7571 197.98 23.7571H205.858V22.416V21.075H198.399H190.939V14.5375V8H189.515H188.09V14.9734Z" fill="#2F3D47"/>
<path d="M205.406 12.8287L210.217 17.6396V20.6736C210.217 22.3332 210.25 23.7412 210.284 23.7748C210.317 23.8083 210.971 23.825 211.709 23.7915L213.066 23.7245V20.7742V17.8072L217.961 12.9125L222.873 8.00098H221.029H219.185L215.464 11.7223L211.725 15.4604L207.987 11.7223L204.266 8.00098H202.422H200.578L205.406 12.8287Z" fill="#2F3D47"/>
<mask id="mask0_57_105" style="mask-type:luminance" maskUnits="userSpaceOnUse" x="0" y="0" width="109" height="32">
<path d="M109 0H0V32H109V0Z" fill="white"/>
</mask>
<g mask="url(#mask0_57_105)">
</g>
</svg>
