<svg width="3348" height="1580" viewBox="0 0 3348 1580" fill="none" xmlns="http://www.w3.org/2000/svg">
<path d="M264.236 241.882C291.993 101.317 415.274 0 558.553 0H2979.33C3169.53 0 3311.72 174.742 3273.06 360.978L3069.62 1340.98C3040.72 1480.19 2918.06 1580 2775.88 1580H365.034C176.018 1580 34.0995 1407.32 70.717 1221.88L264.236 241.882Z" fill="#002D96"/>
<path d="M337.105 885.012C337.105 815.285 342.086 746.112 352.047 677.492C362.008 608.319 379.993 543.296 406.002 482.424C432.011 420.998 468.811 366.766 516.402 319.729C563.993 272.137 625.143 234.784 699.85 207.668C774.557 180.552 865.589 166.994 972.945 166.994C996.741 166.994 1025.79 168.378 1060.1 171.145C1094.41 173.911 1122.91 177.232 1145.6 181.105V437.6C1122.91 433.173 1097.46 429.576 1069.23 426.809C1041.01 423.488 1006.43 421.828 965.475 421.828C883.574 421.828 818.827 434.279 771.236 459.182C724.199 483.531 690.165 518.671 669.137 564.602C648.108 610.533 635.934 665.594 632.613 729.787H642.574C656.962 703.225 674.394 679.429 694.869 658.4C715.898 636.818 741.63 619.94 772.066 607.766C802.503 595.038 839.303 588.674 882.467 588.674C953.3 588.674 1014.17 604.169 1065.08 635.158C1116 665.594 1155.01 710.142 1182.12 768.801C1209.24 827.46 1222.8 898.846 1222.8 982.961C1222.8 1073.72 1205.37 1151.47 1170.5 1216.21C1136.19 1280.41 1086.94 1329.66 1022.75 1363.97C959.111 1397.72 883.02 1414.6 794.479 1414.6C729.179 1414.6 668.583 1404.09 612.691 1383.06C557.353 1362.03 508.932 1329.93 467.428 1286.77C426.477 1243.05 394.381 1187.99 371.139 1121.58C348.45 1054.62 337.105 975.767 337.105 885.012ZM787.008 1154.79C821.871 1154.79 850.094 1141.51 871.676 1114.94C893.811 1088.38 904.879 1046.6 904.879 989.602C904.879 943.671 895.748 907.701 877.486 881.691C859.778 855.129 830.725 841.848 790.328 841.848C763.212 841.848 740.247 848.488 721.432 861.77C702.617 874.497 688.229 890.822 678.268 910.744C668.307 930.666 663.326 951.418 663.326 973C663.326 994.582 665.54 1016.16 669.967 1037.75C674.947 1059.33 682.418 1078.97 692.379 1096.68C702.893 1113.84 715.898 1127.95 731.393 1139.02C746.887 1149.53 765.426 1154.79 787.008 1154.79Z" fill="white"/>
<path d="M1546.52 1019H1488.36V852.154H1447.49C1446.81 860.162 1445.88 869.195 1444.71 879.254C1443.54 889.215 1442.22 899.469 1440.76 910.016C1439.39 920.465 1437.92 930.523 1436.36 940.191C1434.8 949.859 1433.19 958.307 1431.53 965.533C1428.99 977.35 1425.23 987.457 1420.25 995.855C1415.37 1004.25 1408.68 1010.7 1400.18 1015.19C1391.68 1019.68 1380.75 1021.93 1367.37 1021.93C1363.07 1021.93 1359.07 1021.64 1355.36 1021.05C1351.64 1020.46 1348.08 1019.68 1344.66 1018.71V974.029C1347.3 974.908 1349.74 975.641 1351.99 976.227C1354.23 976.715 1356.58 976.959 1359.02 976.959C1362.24 976.959 1365.07 976.031 1367.51 974.176C1370.05 972.32 1372.4 968.268 1374.54 962.018C1376.79 955.768 1378.99 946.148 1381.14 933.16C1381.92 928.961 1382.94 922.711 1384.21 914.41C1385.48 906.012 1386.9 896.1 1388.46 884.674C1390.12 873.248 1391.78 860.748 1393.44 847.174C1395.2 833.6 1396.91 819.488 1398.57 804.84H1546.52V1019ZM1720.1 1019H1592.95V804.84H1720.1V851.275H1650.81V884.967H1714.97V931.402H1650.81V971.832H1720.1V1019ZM1852.08 1019H1794.22V852.154H1741.93V804.84H1904.23V852.154H1852.08V1019Z" fill="white"/>
<path d="M1483.37 1118.26V1160.31H1407.17V1311H1354.83V1118.26H1483.37ZM1629.19 1311L1619.69 1274.88H1557.07L1547.32 1311H1490.1L1552.98 1117.46H1622.46L1686.14 1311H1629.19ZM1608.88 1232.16L1600.58 1200.52C1599.7 1197.09 1598.42 1192.22 1596.75 1185.89C1595.08 1179.47 1593.41 1172.88 1591.74 1166.11C1590.16 1159.26 1588.93 1153.63 1588.05 1149.24C1587.26 1153.63 1586.12 1159.08 1584.63 1165.58C1583.22 1172 1581.73 1178.37 1580.14 1184.7C1578.65 1191.03 1577.33 1196.3 1576.19 1200.52L1567.88 1232.16H1608.88ZM1773.82 1118.26C1798.25 1118.26 1816.53 1123.57 1828.66 1134.21C1840.88 1144.84 1846.98 1159.96 1846.98 1179.56C1846.98 1188.35 1845.71 1196.79 1843.16 1204.87C1840.7 1212.96 1836.61 1220.17 1830.9 1226.49C1825.28 1232.82 1817.76 1237.83 1808.36 1241.52C1799.04 1245.21 1787.53 1247.06 1773.82 1247.06H1759.18V1311H1707.11V1118.26H1773.82ZM1772.63 1160.31H1759.18V1204.61H1769.46C1773.95 1204.61 1778.12 1203.86 1781.99 1202.37C1785.86 1200.79 1788.93 1198.28 1791.22 1194.85C1793.59 1191.34 1794.78 1186.68 1794.78 1180.88C1794.78 1174.81 1792.98 1169.89 1789.37 1166.11C1785.77 1162.25 1780.19 1160.31 1772.63 1160.31ZM1995.96 1311L1986.47 1274.88H1923.85L1914.09 1311H1856.88L1919.76 1117.46H1989.24L2052.92 1311H1995.96ZM1975.66 1232.16L1967.36 1200.52C1966.48 1197.09 1965.2 1192.22 1963.53 1185.89C1961.86 1179.47 1960.19 1172.88 1958.52 1166.11C1956.94 1159.26 1955.71 1153.63 1954.83 1149.24C1954.04 1153.63 1952.9 1159.08 1951.4 1165.58C1950 1172 1948.5 1178.37 1946.92 1184.7C1945.43 1191.03 1944.11 1196.3 1942.97 1200.52L1934.66 1232.16H1975.66ZM2239.08 1311H2186.74V1232.43H2126.22V1311H2073.88V1118.26H2126.22V1189.71H2186.74V1118.26H2239.08V1311ZM2365.91 1311H2313.83V1160.84H2266.77V1118.26H2412.84V1160.84H2365.91V1311ZM2440.4 1118.26H2488.92V1206.45C2488.92 1210.41 2488.87 1214.58 2488.78 1218.98C2488.7 1223.29 2488.56 1227.55 2488.39 1231.77C2488.21 1235.99 2487.99 1239.98 2487.73 1243.76C2487.46 1247.54 2487.16 1250.88 2486.81 1253.78H2487.86L2567.23 1118.26H2626.95V1311H2578.3V1227.55C2578.3 1223.94 2578.34 1219.86 2578.43 1215.29C2578.61 1210.72 2578.78 1206.01 2578.96 1201.18C2579.22 1196.35 2579.49 1191.69 2579.75 1187.21C2580.1 1182.72 2580.45 1178.81 2580.8 1175.47H2579.62L2500.25 1311H2440.4V1118.26ZM2668.74 1118.26H2717.26V1206.45C2717.26 1210.41 2717.22 1214.58 2717.13 1218.98C2717.04 1223.29 2716.91 1227.55 2716.73 1231.77C2716.56 1235.99 2716.34 1239.98 2716.07 1243.76C2715.81 1247.54 2715.5 1250.88 2715.15 1253.78H2716.21L2795.57 1118.26H2855.29V1311H2806.65V1227.55C2806.65 1223.94 2806.69 1219.86 2806.78 1215.29C2806.95 1210.72 2807.13 1206.01 2807.3 1201.18C2807.57 1196.35 2807.83 1191.69 2808.1 1187.21C2808.45 1182.72 2808.8 1178.81 2809.15 1175.47H2807.96L2728.6 1311H2668.74V1118.26Z" fill="white"/>
<path d="M2645 170C2645 170 2756 322.716 2969 279.392C2969 881.048 2645 932 2645 932C2645 932 2321 881.048 2321 279.392C2513 322.716 2645 170 2645 170Z" fill="#3659AC"/>
<path d="M2539 515L2618 614L2771 454" stroke="#002D96" stroke-width="50" stroke-linecap="round" stroke-linejoin="round"/>
</svg>
