<svg width="88" height="85" viewBox="0 0 88 85" fill="none" xmlns="http://www.w3.org/2000/svg">
<path d="M8.01035 8C7.56805 33.5522 21.1468 82.7696 79 75.2218" stroke="#2F3D47" stroke-width="15" stroke-linecap="round"/>
<path d="M4.00596 1.70748C4.9554 0.622401 6.32703 0 7.76884 0H22C24.7614 0 27 2.23858 27 5V27.8631C27 28.9266 26.6609 29.9624 26.032 30.82L21.7439 36.6675C21.5854 36.8835 21.5 37.1444 21.5 37.4124V37.4124C21.5 38.4627 20.2901 39.0517 19.4634 38.4037L4.80372 26.9137C3.65852 26.0161 2.96113 24.6642 2.89352 23.2108L2.0935 6.01029C2.03351 4.72038 2.47489 3.45727 3.32522 2.48546L4.00596 1.70748Z" fill="#2F3D47"/>
<path d="M85.686 75.3567C86.2157 74.4738 86.46 73.4489 86.3853 72.4219L85.6076 61.7171C85.4058 58.9409 82.9758 56.8639 80.2021 57.0969L58.1531 58.9493C56.5855 59.081 55.1714 59.9427 54.3357 61.2754L52.8095 63.709C52.2839 64.5473 51.502 65.1937 50.5798 65.5523V65.5523C47.2459 66.8488 46.603 71.2878 49.4322 73.4769L59.7981 81.4977C60.7485 82.2331 61.932 82.6015 63.1319 82.5357L79.3513 81.6454C81.0078 81.5545 82.5113 80.6479 83.3648 79.2254L85.686 75.3567Z" fill="#2F3D47"/>
</svg>
