<svg width="126" height="126" viewBox="0 0 126 126" fill="none" xmlns="http://www.w3.org/2000/svg">
<path d="M108.5 54.8369H18.5C15.4624 54.8369 13 57.2658 13 60.2621V117.473C13 120.469 15.4624 122.898 18.5 122.898H108.5C111.538 122.898 114 120.469 114 117.473V60.2621C114 57.2658 111.538 54.8369 108.5 54.8369Z" stroke="black" stroke-width="5"/>
<path d="M10.5 29.1904H115.5C119.642 29.1904 123 32.5026 123 36.5884V47.4387C123 51.5245 119.642 54.8367 115.5 54.8367H10.5C6.35786 54.8367 3 51.5245 3 47.4387V36.5884C3 32.5026 6.35786 29.1904 10.5 29.1904Z" stroke="black" stroke-width="5"/>
<path d="M74 26.7246V125.364" stroke="#002D96" stroke-width="7"/>
<path d="M55 26.7246V125.364" stroke="#002D96" stroke-width="7"/>
<path d="M64.5 28.6972C68.366 28.6972 71.5 25.6059 71.5 21.7925C71.5 17.9791 68.366 14.8877 64.5 14.8877C60.634 14.8877 57.5 17.9791 57.5 21.7925C57.5 25.6059 60.634 28.6972 64.5 28.6972Z" stroke="#002D96" stroke-width="6"/>
<path d="M39.4453 6.87512L54.9668 20.2717C55.4042 20.6493 55.7378 21.1299 55.9365 21.6688C56.7541 23.8866 55.089 26.2314 52.6966 26.2314H32.709C26.5479 26.2314 21.2657 21.9179 20.1002 15.9701C19.7008 5.92009 31.7209 0.208272 39.4453 6.87512Z" stroke="#002D96" stroke-width="7"/>
<path d="M88.6703 7.36828L73.1488 20.7649C72.7113 21.1425 72.3778 21.6231 72.1791 22.1619C71.3615 24.3797 73.0266 26.7246 75.419 26.7246H95.4066C101.568 26.7246 106.85 22.4111 108.015 16.4632C108.415 6.41325 96.3947 0.701436 88.6703 7.36828Z" stroke="#002D96" stroke-width="7"/>
</svg>
